/* XPM */
static char *a501f071f3fd4ed686756329d7eb1147hKTJRpdNPbtxUelu[] = {
/* columns rows colors chars-per-pixel */
"32 32 222 2 ",
"   c #261800",
".  c #382703",
"X  c #372703",
"o  c #392904",
"O  c #3C2B06",
"+  c #3B2B05",
"@  c #3D2C06",
"#  c #3C2B05",
"$  c #382804",
"%  c #1F1501",
"&  c #322404",
"*  c #392905",
"=  c #3A2A05",
"-  c #382805",
";  c #372704",
":  c #342503",
">  c #362703",
",  c #241701",
"<  c #1B1100",
"1  c #312202",
"2  c #342403",
"3  c #3E2D06",
"4  c #3A2A04",
"5  c #271B01",
"6  c #362602",
"7  c #483608",
"8  c #4D3A0B",
"9  c #493709",
"0  c #4B380A",
"q  c #483609",
"w  c #463408",
"e  c #453307",
"r  c #423106",
"t  c #302102",
"y  c #423006",
"u  c #473408",
"i  c #4B390A",
"p  c #4A3809",
"a  c #352603",
"s  c #281B01",
"d  c #4D3A0A",
"f  c #4A380A",
"g  c #443207",
"h  c #433206",
"j  c #4F3D0C",
"k  c #332503",
"l  c #3B2A04",
"z  c #4B390B",
"x  c #49370A",
"c  c #453308",
"v  c #3D2C04",
"b  c #1E1200",
"n  c #382704",
"m  c #3D2C05",
"M  c #433107",
"N  c #4A3709",
"B  c #201400",
"V  c #3E2D05",
"C  c #473509",
"Z  c #332403",
"A  c #3C2C05",
"S  c #4C3A0B",
"D  c #4E3B0C",
"F  c #473508",
"G  c #251800",
"H  c #443208",
"J  c #4E3B0B",
"K  c #443307",
"L  c #493609",
"P  c #291C01",
"I  c #413006",
"U  c #493608",
"Y  c #312303",
"T  c #332402",
"R  c #463509",
"E  c #382803",
"W  c #3C2B04",
"Q  c #3E2D04",
"!  c #443308",
"~  c #402F06",
"^  c #3D2D05",
"/  c #3F2E05",
"(  c #382802",
")  c #463409",
"_  c #261901",
"`  c #423107",
"'  c #3F2E06",
"]  c #231700",
"[  c #302103",
"{  c #332303",
"}  c #352503",
"|  c #221601",
" . c #211500",
".. c #312101",
"X. c #302101",
"o. c #322203",
"O. c #2B1D02",
"+. c #362603",
"@. c #241801",
"#. c #2E1F02",
"$. c #322202",
"%. c #2C1E02",
"&. c #261902",
"*. c #2E1F01",
"=. c #271A01",
"-. c #2C1D01",
";. c #221600",
":. c #362604",
">. c #2F2001",
",. c #463407",
"<. c #251801",
"1. c #261900",
"2. c #443206",
"3. c #3B2A03",
"4. c #2B1D01",
"5. c #1F1400",
"6. c #332302",
"7. c #2C1F02",
"8. c #453408",
"9. c #2D1F02",
"0. c #433207",
"q. c #1B1000",
"w. c #352604",
"e. c #2F2002",
"r. c #342402",
"t. c #4B3809",
"y. c #4D3B0B",
"u. c #1D1200",
"i. c #433106",
"p. c #3C2C03",
"a. c #4C390B",
"s. c #402E05",
"d. c #483508",
"f. c #271901",
"g. c #2C1E00",
"h. c #2D1E01",
"j. c #201500",
"k. c #190F00",
"l. c #2A1C01",
"z. c #322301",
"x. c #2C1E01",
"c. c #241700",
"v. c #322302",
"b. c #2D1F01",
"n. c #2A1D02",
"m. c #291B01",
"M. c #413007",
"N. c #392803",
"B. c #342502",
"V. c #2E2003",
"C. c #402F05",
"Z. c #271A00",
"A. c #463508",
"S. c #4A370A",
"D. c #1D1100",
"F. c #322303",
"G. c #281A01",
"H. c #503D0C",
"J. c #3C2C04",
"K. c #503D0D",
"L. c #412F06",
"P. c #332301",
"I. c #2F2103",
"U. c #372804",
"Y. c #362705",
"T. c #3B2B06",
"R. c #3A2904",
"E. c #261A02",
"W. c #221500",
"Q. c #372805",
"!. c #180E00",
"~. c #291C02",
"^. c #342504",
"/. c #362605",
"(. c #1E1300",
"). c #352502",
"_. c #493708",
"`. c #453306",
"'. c #473407",
"]. c #4C390A",
"[. c #2A1D01",
"{. c #412F05",
"}. c #281A00",
"|. c #392804",
" X c #1A0F00",
".X c #402E06",
"XX c #1F1300",
"oX c #3B2B04",
"OX c #453309",
"+X c #352602",
"@X c #2D1F03",
"#X c #2E2002",
"$X c #1C1100",
"%X c #241800",
"&X c #302202",
"*X c #453407",
"=X c #473507",
"-X c #3C2B03",
";X c #231600",
":X c #423007",
">X c #2F2102",
",X c #2D1E02",
"<X c #4F3C0C",
"1X c #423005",
"2X c #3A2A03",
"3X c #231701",
"4X c #2E1F00",
"5X c #1F1401",
"6X c #2A1C02",
"7X c #251902",
"8X c #271A02",
"9X c #312201",
"0X c #231601",
"qX c #302203",
"wX c #362704",
"eX c #402F07",
"rX c #190E00",
"tX c #4C3A0A",
"yX c #4E3C0C",
"uX c #3B2A05",
"iX c #150C00",
"pX c white",
/* pixels */
"  . X o O + O @ # $ % & * = * - * ; : > , < # # X $ 1 1 2 3 4 5 ",
"6 7 8 9 0 9 q w e r t y e u q 9 i 9 8 p a s d f g f g h 9 j d k ",
"l q z q x 0 c v w # b n w m M i x q z N = B g q V C i f C 0 9 Z ",
"A S D 9 F q 9 g 8 q G H J K q x q L 8 J # P I M I C x x i D U Y ",
"T g R # E W I Q ! ~ B ^ w V I / ( m ) q Z _ r ` c H c ! ~ ' / ] ",
"[ { } 1 |  ...X.T o.O.Z +.} 1 < @.#.$.1 %.&.%.*.*.=. .*.$.*.-.;.",
"w q w F :.>.F q w 9 e w q K ,.<.m ,.F F g N w C F E 1.2.D x I 3.",
"q V r r 4.o w q g w q c V K W 5.6.g ~ I 9 w g q F ~ 7.M x w x q ",
"f ~ 8.N 9.> q q C x x C ' x 0.q.w.i ` ` i 9 q w q / 9.g R w ! w ",
"h V V 2.e.r.t.y.c Q v r v / r u.o i.V ~ ~ p.K a.J / 1.s.L q d.9 ",
"f.*.g.1 ;.s t 1 h.s j.9.X.X.1 k.l.6.X.z.x.c.x.1 v.h.b 4.b.>.#.n.",
"m./ ~ ~ c ~ M.g M.y | : m E l N.B.W ! c $  .4 V ' M.M ' M M.~ V.",
"E F z w w F w r 0.C.Z.# N ` g q w 9 0 8 ^ >.e 0 L c A.F M 0.i.T ",
"o e c e S.0 C V 9 I D.F.F / I i q c c ! V t g c g 9 f f V c w G.",
"E i H.N 2.y w C.g e m./ ,.A.7 w 9 F 8 t.J.*.d.K.i ,.L.C ~ 0.F Z ",
"4.+.= $.b.4.r.P.v.} k.I.$ = U.:.Y.w.{ B.f.5.a T.:.$.-.6.r.6.$ <.",
"* = = R.E.W.X +.o = Q.; = $ :.!.~.w.$ ; ^./.: v.r.m.(.+.# $ v.4.",
"F F e ,.+.)._.8 F q w F F e `.s V '.F q w 9 F ].0 Q [.e H.i w {.",
"f m 0.e }.|.e c g q f c v F A  Xt F .X~ 0 q c c c ~ 9.M 8.g L S.",
"x I c 9 $.+.i S N F F F ~ q e XX* p M M x w 9 f S / x.g f 9 c w ",
"oXN.X ^ s e.y OX+ +XB.W E o m !.: V E oXE 6 m c C 4 5.E ' .XM.0.",
";.X.>.6.@XI.F.2 1 #X$X9.6.X.v.%X-.6.} +.>.XXb.X.1 t O.[ 1 v.t <.",
"&X,.S.w N *Xw L e =Xm.4 i.V L.I -X0.a.8 m }.y q F q 7 e 9 w ,.; ",
"o e C g w L w m g m B $ i I M 0 x q w q m t K C w c C q V r I 4.",
"$ F x C 9 x q / x g ;X: g s.:Xq w g q w V >XK x w x q f ' ) L ,X",
"} d.8 H Q l I v V y c.' e F F e N w C F > l.,.<Xq 1X2Xy V V h t ",
"n.>X{ h.3X;X>.4X>.t 5X6X$.v.#X7X8Xh.-.x.@.B h.t b.G.;X*.9X>.1 0X",
"` c 0.g qXm.I M.:Xc r M c I y (.wXI 0.M ' ! eX' ~ v.;./ C ` 4 r.",
"C y i.i.X.$ F i c w C c I 0./ <.E g r g C w c 0 9 / x.g 8 9 9 w ",
"0 / c q l.; w 8.w f i w V x ~ rXF.p I I a.f C K 8.' 9.0.c g w q ",
"w s.I ,.v.+.tX<Xq I I e / M e B = w ~ y c C.F a.yX/ P r 0 N F F ",
"v.T v.$ @.[.$ uX{ >.x.: 6.r.+.iX>XR.B.E v.>.} # V a u.$.+.; * + "
};
